<svg id="Layer_1" data-name="Layer 1" xmlns="http://www.w3.org/2000/svg" xmlns:xlink="http://www.w3.org/1999/xlink" viewBox="0 0 200 217"><defs><style>.cls-1{fill:#050505;}.cls-2,.cls-3{fill:#a5a5a5;}.cls-3{stroke:#000;stroke-miterlimit:10;}.cls-4{fill:url(#linear-gradient);}</style><linearGradient id="linear-gradient" x1="117.76" y1="168.47" x2="117.76" y2="24.54" gradientUnits="userSpaceOnUse"><stop offset="0" stop-color="#fff"/><stop offset="0.3" stop-color="#f3c49e"/><stop offset="0.7" stop-color="#e25956"/></linearGradient></defs><title>ikon_final</title><path class="cls-1" d="M101.5,197.66a96.54,96.54,0,1,1,66.83-26.91c-6.51,4.59-23.7,16.71-24.41,17.1A95.49,95.49,0,0,1,101.5,197.66ZM101,26.5c-37.77,0-68.5,33-68.5,73.5s30.73,73.5,68.5,73.5,68.5-33,68.5-73.5S138.77,26.5,101,26.5Z" transform="translate(-4.5 -4)"/><path d="M101.5,5A96.1,96.1,0,0,1,168,170.34c-9.4,6.63-23.59,16.63-24.32,17.06a95,95,0,0,1-42.21,9.76A96.08,96.08,0,0,1,101.5,5M101,174c38,0,69-33.2,69-74s-31-74-69-74S32,59.2,32,100s31,74,69,74m.5-170a97.08,97.08,0,1,0,42.65,184.29c.62-.3,24.52-17.18,24.52-17.18A97.1,97.1,0,0,0,101.5,4ZM101,173c-37.56,0-68-32.68-68-73s30.44-73,68-73,68,32.68,68,73-30.44,73-68,73Z" transform="translate(-4.5 -4)"/><path class="cls-1" d="M149,183.39c2.11-1.24,10.23-6.15,16-11.61l38.65,30.76-24.09,17.78Z" transform="translate(-4.5 -4)"/><path d="M165.06,172.43l37.8,30.09-23.19,17.11-29.9-36.11a98.33,98.33,0,0,0,15.28-11.09m-.06-1.32c-6.71,6.45-16.75,12.14-16.75,12.14L179.5,221l25-18.45L165,171.11Z" transform="translate(-4.5 -4)"/><path class="cls-2" d="M101,178.5c-40.53,0-73.5-35.21-73.5-78.5s33-78.5,73.5-78.5,73.5,35.21,73.5,78.5S141.53,178.5,101,178.5Zm0-154c-38.87,0-70.5,33.65-70.5,75s31.63,75,70.5,75,70.5-33.64,70.5-75S139.87,24.5,101,24.5Z" transform="translate(-4.5 -4)"/><path d="M101,22c40.25,0,73,35,73,78s-32.75,78-73,78-73-35-73-78,32.75-78,73-78m0,153c39.15,0,71-33.87,71-75.5S140.15,24,101,24,30,57.87,30,99.5,61.85,175,101,175m0-154c-40.87,0-74,35.37-74,79s33.13,79,74,79,74-35.37,74-79-33.13-79-74-79Zm0,153c-38.66,0-70-33.35-70-74.5S62.34,25,101,25s70,33.35,70,74.5S139.66,174,101,174Z" transform="translate(-4.5 -4)"/><polygon class="cls-3" points="152 176.5 148 179.5 175 212.5 184.5 205 152 176.5"/><polygon class="cls-4" points="42.08 168.47 38.02 25.67 72.48 26.79 73.86 146.27 166.01 25.64 197.51 24.54 143.3 101.11 196.1 167.32 163.28 167.32 128.95 119.84 87.75 168.47 42.08 168.47"/><path d="M201,29.07l-53.41,75.44-.43.61.47.59,51.92,65.11H168l-33.81-46.76-.75-1-.83,1L92,172h-45L43,30.18l33.46,1.09,1.35,117.55,0,2.9,1.76-2.31L170.76,30.13,201,29.07M203,28l-32.75,1.15L78.84,148.81,77.47,30.3,42,29.15,46.09,173H92.48l40.93-48.32,34.11,47.17h34.11l-53.21-66.73L203,28Z" transform="translate(-4.5 -4)"/></svg>
