<svg id="Layer_1" data-name="Layer 1" xmlns="http://www.w3.org/2000/svg" xmlns:xlink="http://www.w3.org/1999/xlink" viewBox="0 0 432 228"><defs><style>.cls-1{fill:#050505;}.cls-2,.cls-3{fill:#a5a5a5;}.cls-3{stroke:#000;stroke-miterlimit:10;}.cls-4{fill:url(#linear-gradient);}.cls-5{fill:url(#linear-gradient-2);}.cls-6{fill:url(#linear-gradient-3);}.cls-7{fill:url(#linear-gradient-4);}</style><linearGradient id="linear-gradient" x1="65.51" y1="152" x2="65.51" y2="53.54" gradientUnits="userSpaceOnUse"><stop offset="0" stop-color="#fff"/><stop offset="0.3" stop-color="#f3c49e"/><stop offset="0.72" stop-color="#e25956"/></linearGradient><linearGradient id="linear-gradient-2" x1="378.03" y1="151.5" x2="378.03" y2="53.5" gradientUnits="userSpaceOnUse"><stop offset="0" stop-color="#fff"/><stop offset="0.34" stop-color="#f3c49e"/><stop offset="0.76" stop-color="#e25956"/></linearGradient><linearGradient id="linear-gradient-3" x1="164.15" y1="151.54" x2="164.15" y2="54" gradientUnits="userSpaceOnUse"><stop offset="0" stop-color="#fff"/><stop offset="0.37" stop-color="#f3c49e"/><stop offset="0.71" stop-color="#e25956"/></linearGradient><linearGradient id="linear-gradient-4" x1="271.48" y1="151.58" x2="271.48" y2="51.09" gradientUnits="userSpaceOnUse"><stop offset="0" stop-color="#fff"/><stop offset="0.37" stop-color="#f3c49e"/><stop offset="0.68" stop-color="#e25956"/></linearGradient></defs><title>logo_final</title><path class="cls-1" d="M217.5,200.66a96.54,96.54,0,1,1,66.83-26.91c-6.51,4.59-23.7,16.71-24.41,17.1A95.49,95.49,0,0,1,217.5,200.66ZM217,29.5c-37.77,0-68.5,33-68.5,73.5s30.73,73.5,68.5,73.5,68.5-33,68.5-73.5S254.77,29.5,217,29.5Z"/><path d="M217.5,8A96.1,96.1,0,0,1,284,173.34c-9.4,6.63-23.59,16.63-24.32,17.06a95,95,0,0,1-42.21,9.76A96.08,96.08,0,0,1,217.5,8M217,177c38,0,69-33.2,69-74s-31-74-69-74-69,33.2-69,74,31,74,69,74m.5-170a97.08,97.08,0,1,0,42.65,184.29c.62-.3,24.52-17.18,24.52-17.18A97.1,97.1,0,0,0,217.5,7ZM217,176c-37.56,0-68-32.68-68-73s30.44-73,68-73,68,32.68,68,73-30.44,73-68,73Z"/><path class="cls-1" d="M265,186.39c2.11-1.24,10.23-6.15,16-11.61l38.65,30.76-24.09,17.78Z"/><path d="M281.06,175.43l37.8,30.09-23.19,17.11-29.9-36.11a98.33,98.33,0,0,0,15.28-11.09m-.06-1.32c-6.71,6.45-16.75,12.14-16.75,12.14L295.5,224l25-18.45L281,174.11Z"/><path class="cls-2" d="M217,181.5c-40.53,0-73.5-35.21-73.5-78.5s33-78.5,73.5-78.5,73.5,35.21,73.5,78.5S257.53,181.5,217,181.5Zm0-154c-38.87,0-70.5,33.65-70.5,75s31.63,75,70.5,75,70.5-33.64,70.5-75S255.87,27.5,217,27.5Z"/><path d="M217,25c40.25,0,73,35,73,78s-32.75,78-73,78-73-35-73-78,32.75-78,73-78m0,153c39.15,0,71-33.87,71-75.5S256.15,27,217,27s-71,33.87-71,75.5S177.85,178,217,178m0-154c-40.87,0-74,35.37-74,79s33.13,79,74,79,74-35.37,74-79-33.13-79-74-79Zm0,153c-38.66,0-70-33.35-70-74.5S178.34,28,217,28s70,33.35,70,74.5S255.66,177,217,177Z"/><polygon class="cls-3" points="272.5 183.5 268.5 186.5 295.5 219.5 305 212 272.5 183.5"/><polygon class="cls-4" points="13.79 152 11.02 54.31 34.35 55.06 35.3 137.37 98.78 54.28 120.01 53.53 82.92 105.93 119.03 151.21 96.91 151.21 73.27 118.52 44.92 152 13.79 152"/><path d="M119,54.07,82.73,105.33l-.43.61.47.59L118,150.71H97.16l-23.11-32-.75-1-.83,1L44.68,151.5H14.28L11.53,54.82l22.33.72.93,80.38,0,2.9,1.76-2.31L99,54.77l20-.7M121,53l-22.47.79L35.78,135.92l-.94-81.34L10.5,53.79l2.81,98.71H45.15l28.09-33.17,23.41,32.38h23.41l-36.52-45.8L121,53Z"/><path class="cls-5" d="M402.52,151.5c1.67-40-5.67-64.06-20.68-67.85a4.57,4.57,0,0,0-1.12-.14h-.29a17.73,17.73,0,0,0-12.9,6.7c-6,7.16-9.31,19.75-9.91,37.42a183.09,183.09,0,0,0,.82,23.85H332.5l1-98h23V71.91l.77-.48c9.08-5.74,17.46-8.65,24.91-8.65s14.28,3,20,8.9c16.82,17.35,22,57,21.33,79.82Z"/><path d="M356,54V72.81l1.53-1c9-5.69,17.29-8.57,24.64-8.57s14,2.95,19.65,8.76c16.59,17.12,21.74,56.2,21.21,79H403c1.59-39.92-5.88-64-21.07-67.83a5.07,5.07,0,0,0-1.24-.15h-.32a18.21,18.21,0,0,0-13.25,6.88c-13.24,15.87-10,53.91-9.27,61.09H333l1-97h22m1-1H333l-1,99h27s-7.9-66.16,21.46-68h.26a4.08,4.08,0,0,1,1,.12c4,1,23,6,20.28,67.86h22c.83-26.58-6.62-89.72-41.83-89.72C375,62.27,366.66,64.9,357,71V53Z"/><path class="cls-6" d="M176.66,151.54c-28.79,0-43.15-9.1-50.12-16.74C118,125.48,114.48,112.27,116,95.55,116,95.17,121.5,56,167.52,54,167.9,54,211,57.23,212,79.52v.06l0,.06c0,.09,2.61,8.75-3,16.38-5.86,7.94-18.14,12-36.5,12-.14,0-14.7-.08-37.35-7l-.42-.13-.18.4a16.24,16.24,0,0,0,1.26,14.8c5.82,9.06,20.95,13.66,45,13.66a265.8,265.8,0,0,0,28.22-1.7v20A160.89,160.89,0,0,1,176.66,151.54Zm-8.16-80c-15.7,0-28,4.61-28,10.5s12.3,10.5,28,10.5,28-4.61,28-10.5S184.2,71.5,168.5,71.5Z"/><path d="M167.48,54.5c1.73.13,43.08,3.54,44,25v.13l0,.12c0,.08,2.53,8.54-3,16-5.77,7.8-17.91,11.75-36.09,11.75-.14,0-14.64-.09-37.21-7l-.84-.25-.36.79a16.77,16.77,0,0,0,1.3,15.28c5.91,9.22,21.19,13.89,45.39,13.89a264.63,264.63,0,0,0,27.72-1.64V147.7A161,161,0,0,1,176.66,151c-28.61,0-42.85-9-49.76-16.58-8.41-9.21-11.91-22.29-10.41-38.84a49.79,49.79,0,0,1,8.25-19.88C134,62.48,148.39,55.33,167.48,54.5m1,38.5c16,0,28.5-4.83,28.5-11s-12.52-11-28.5-11S140,75.83,140,82s12.52,11,28.5,11m-1-39.5c-47,2-52,42-52,42C111.19,142.93,147.86,152,176.66,152a158.57,158.57,0,0,0,32.84-3.54v-21a265,265,0,0,1-28.72,1.75c-58.5,0-45.78-27.75-45.78-27.75,23,7,37.5,7,37.5,7,49,0,40-29,40-29-1-23-45-26-45-26Zm1,38.5C153.31,92,141,87.52,141,82s12.31-10,27.5-10S196,76.48,196,82s-12.31,10-27.5,10Z"/><path class="cls-7" d="M261.13,151.58c-13.9,0-23.86-3.57-29.6-10.61-7.36-9-5.06-20.76-5-20.88.66-11.44,7.89-25,38.7-25a143.57,143.57,0,0,1,24.62,2.39l.46.08.11-.45c1.34-5.36.58-9.92-2.26-13.55C281.31,74.85,263.59,73,249.94,73a188.63,188.63,0,0,0-22.44,1.41v-21a159.27,159.27,0,0,1,25.84-2.33c20.66,0,36.42,5.47,46.83,16.24,18.14,18.77,17.05,50.1,16.34,70.83-.18,5.2-.34,9.72-.18,13.34H297.42c1-15.51-1-20.49-1.07-20.69l-.5-1.17-.43,1.2c-7.14,19.68-26.26,20.68-30,20.68H265C263.63,151.56,262.35,151.58,261.13,151.58Zm2.31-42.08c-11.56,0-21,6.06-21,13.5s9.41,13.5,21,13.5,21-6.06,21-13.5S275,109.5,263.44,109.5Z"/><path d="M253.34,51.59c20.52,0,36.16,5.41,46.47,16.09,18,18.62,16.91,49.82,16.2,70.46-.17,5-.32,9.31-.2,12.86H298c1-15.22-1.06-20.18-1.15-20.39l-1-2.35-.87,2.39C287.91,150,269.09,151,265.39,151h-.5c-1.28.06-2.55.08-3.76.08-13.73,0-23.56-3.5-29.2-10.41-7.21-8.83-5-20.36-5-20.48v-.14c.63-11.16,7.78-24.46,38.19-24.46A143.06,143.06,0,0,1,289.72,98l.92.16.23-.9c1.38-5.51.58-10.22-2.35-14-5.57-7.13-18.55-10.74-38.58-10.74A190.19,190.19,0,0,0,228,73.86v-20a158.09,158.09,0,0,1,25.34-2.26M263.44,137c11.84,0,21.47-6.28,21.47-14s-9.63-14-21.47-14S242,115.28,242,123s9.63,14,21.47,14m-10.1-86.41A159.42,159.42,0,0,0,227,53V75a183.87,183.87,0,0,1,22.94-1.48c19.92,0,44.88,3.79,40,23.48a143.8,143.8,0,0,0-24.71-2.4C241.62,94.6,227,102.79,226,120c0,0-6.59,32.08,35.13,32.08,1.23,0,2.49,0,3.81-.08h.46c3.27,0,23.17-.84,30.49-21,0,0,2.11,5,1,21h20c-1.34-25.49,14.45-101.41-63.51-101.41ZM263.44,136c-11.3,0-20.47-5.82-20.47-13s9.16-13,20.47-13,20.47,5.82,20.47,13-9.16,13-20.47,13Z"/></svg>
